<?xml version="1.0" encoding="UTF-8"?>
<svg width="40px" height="40px" viewBox="0 0 40 40" version="1.1" xmlns="http://www.w3.org/2000/svg" xmlns:xlink="http://www.w3.org/1999/xlink">
    <!-- Generator: Sketch 52.6 (67491) - http://www.bohemiancoding.com/sketch -->
    <title>Artboard</title>
    <desc>Created with Sketch.</desc>
    <g id="Artboard" stroke="none" stroke-width="1" fill="none" fill-rule="evenodd">
        <path d="M20,40 C8.954305,40 0,31.045695 0,20 C0,8.954305 8.954305,0 20,0 C31.045695,0 40,8.954305 40,20 C40,31.045695 31.045695,40 20,40 Z M9.58828542,14.4466115 C11.4309589,14.4466115 12.9247408,12.9528296 12.9247408,11.1101561 C12.9247408,9.26748269 11.4309589,7.77370073 9.58828542,7.77370073 C7.74561198,7.77370073 6.25183002,9.26748269 6.25183002,11.1101561 C6.25183002,12.9528296 7.74561198,14.4466115 9.58828542,14.4466115 Z M27.3580327,32.2275553 C30.8265583,32.2275553 33.6383539,29.4157597 33.6383539,25.9472341 C33.6383539,22.4787084 30.8265583,19.6669128 27.3580327,19.6669128 C23.889507,19.6669128 21.0777114,22.4787084 21.0777114,25.9472341 C21.0777114,29.4157597 23.889507,32.2275553 27.3580327,32.2275553 Z" id="Combined-Shape" fill="#FFFFFF"></path>
    </g>
</svg>